<mxfile host="app.diagrams.net" modified="2024-01-30T16:21:04.661Z" agent="Mozilla/5.0 (Windows NT 10.0; Win64; x64; rv:122.0) Gecko/20100101 Firefox/122.0" version="22.1.22" etag="QH1JTRHyHDBc4s996_eu" type="github">
  <diagram name="Page-1" id="6sOdxwfvowF07dm26hqn">
    <mxGraphModel>
      <root>
        <mxCell id="0" />
        <mxCell id="1" parent="0" />
      </root>
    </mxGraphModel>
  </diagram>
</mxfile>
